<svg xmlns="http://www.w3.org/2000/svg" width="1000" height="600" viewBox="0 0 1000 600">
  <defs>
    <style>
      .cls-1, .cls-2 {
        fill: #900;
      }

      .cls-1, .cls-3 {
        fill-rule: evenodd;
      }

      .cls-2 {
        stroke: #000;
        stroke-width: 1px;
      }

      .cls-3 {
        fill: #fff;
      }
    </style>
  </defs>
  <path id="yum" class="cls-1" d="M100.641,527.473q29.467,0,45.461-17.132t27.492-60.493L271.883,78.4h-31.8L175.75,323.248,112.006,78.4H75.3l81.937,314.745-8.8,31.535q-10.065,36.081-19.226,47T99.922,482.6H85.547v44.877h15.094ZM435.4,78.4V293.688q-29.109,64.893-55.7,64.89-16.891,0-23.9-16.223t-7.008-55.035V78.4h-35.4V303.694q0,111.591,55.343,111.586,42.224,0,66.664-69.438V407.7h35.4V78.4H435.4ZM551.3,407.7V195.747q7.724-30.929,18.058-51.7t17.879-20.771q7.008,0,9.344,11.371t2.336,45.332V407.7H630V195.141q19.582-72.468,36.477-72.47,6.468,0,8.8,9.7t2.336,36.69V407.7H708.7V166.638q0-50.331-8.266-72.925t-26.593-22.59q-25.159,0-43.844,69.134h-1.258Q621.2,71.123,594.781,71.123q-20.665,0-43.484,69.134V78.4H520.211V407.7H551.3Z"/>
  <rect id="rect1" class="cls-2" x="720" y="70" width="218" height="338" rx="10" ry="10"/>
  <path id="e_" data-name="e " class="cls-3" d="M913.953,338.02q-32.658,22.046-59.984,22.043-64.628,0-68.407-107.024H912.75V234.767q0-82.662-18.3-121.817T837.469,73.795q-38.33,0-63.164,47.276T749.469,241.728q0,77.731,25.867,119.5t73.992,41.765q29.391,0,64.625-19.722V338.02ZM801.633,141.374q12.633-24.649,32.914-24.653,42.108,0,42.109,85.271v8.121H786.594Q789,166.029,801.633,141.374Z"/>
</svg>
